<?xml version="1.0" encoding="iso-8859-1"?>
<!-- Generator: Adobe Illustrator 16.0.0, SVG Export Plug-In . SVG Version: 6.00 Build 0)  -->
<!DOCTYPE svg PUBLIC "-//W3C//DTD SVG 1.1//EN" "http://www.w3.org/Graphics/SVG/1.1/DTD/svg11.dtd">
<svg version="1.1" id="Capa_1" xmlns="http://www.w3.org/2000/svg" xmlns:xlink="http://www.w3.org/1999/xlink" x="0px" y="0px"
	 width="36.764px" height="36.765px" viewBox="0 0 36.764 36.765" style="enable-background:new 0 0 36.764 36.765;"
	 xml:space="preserve">
<g>
	<path d="M31.023,16.178c-0.896-1.726,0.379-2.759,0.465-3.651c0.396-4.115-0.994-6.634-2.883-8.627
		c-3.121-3.301-7.134-3.922-9.761-3.9C12.119,0.049,9.398,2.183,7.338,4.479c-4.282,4.781-3.377,8.978-3.377,8.978
		c0.103,2.489,3.537,7.021,3.537,7.021c2.738,3.937,1.394,6.974,1.394,6.974c5.528,1.243,10.062,9.312,10.062,9.312
		c0.2-1.195,2.856-6.24,2.856-6.24c1.11-1.396,2.976-0.905,3.981-0.782c2.887,0.355,3.604-0.494,3.604-0.494
		c0.631-0.386,0.332-1.992,0.332-1.992c-0.231-0.831,0.146-1.237,0.381-1.562c0.633-0.884,0.268-1.294,0.268-1.294
		c-0.199-0.251-0.066-0.383-0.066-0.383c0.697-0.232,0.748-0.613,0.748-0.613l-0.018-1.278c-0.115-0.878,0.281-0.932,0.281-0.932
		c1.596-0.029,1.561-1.062,1.561-1.062C32.946,19.564,31.023,16.178,31.023,16.178z M21.486,3.396l0.287,1.896l-0.494,0.074
		l-0.287-1.895L21.486,3.396z M19.072,4.819l1.543,1.138l-0.297,0.401l-1.543-1.137L19.072,4.819z M22.206,7.524
		C22.168,7.711,22.1,7.878,22,8.021c-0.287,0.414-0.812,0.622-1.543,0.611l-0.162-0.003c-0.455-0.012-0.92-0.021-1.229,0.29
		c-0.166,0.167-0.278,0.431-0.344,0.772c1.943,0.947,2.849,3.246,2.027,5.28c-0.859,2.124-3.28,3.149-5.402,2.29
		c-2.125-0.859-3.15-3.278-2.291-5.402c0.813-2.012,3.028-3.036,5.063-2.406c0.098-0.416,0.258-0.747,0.491-0.983
		c0.502-0.507,1.192-0.491,1.696-0.479l0.154,0.003c0.528,0.01,0.853-0.106,1.011-0.336c0.05-0.07,0.084-0.156,0.104-0.256
		c0.019-0.096,0.022-0.205,0.015-0.321c-0.035-0.458-0.261-0.903-0.263-0.908l0.567-0.291c0.012,0.022,0.284,0.561,0.33,1.147
		C22.242,7.204,22.235,7.371,22.206,7.524z M22.738,6.067l-0.297-0.401l1.543-1.138l0.297,0.402L22.738,6.067z"/>
</g>
<g>
</g>
<g>
</g>
<g>
</g>
<g>
</g>
<g>
</g>
<g>
</g>
<g>
</g>
<g>
</g>
<g>
</g>
<g>
</g>
<g>
</g>
<g>
</g>
<g>
</g>
<g>
</g>
<g>
</g>
</svg>
